Coordinates
version=1
nRows=12
nColumns=33
inDegrees=yes

Units are S.I. units (second, meters, Newtons, ...)
Angles are in degrees.

endheader
time	ground_thorax_rot_x	ground_thorax_rot_y	ground_thorax_rot_z	ground_thorax_tx	ground_thorax_ty	ground_thorax_tz	clav_prot_r	clav_elev_r	scapula_abduction_r	scapula_elevation_r	scapula_upward_rot_r	scapula_winging_r	shoulder_elv_r	plane_of_elev_r	axial_rot_r	elbow_flexion_r	pro_sup_r	wrist_flex_r	wrist_dev_r	clav_prot_l	clav_elev_l	scapula_abduction_l	scapula_elevation_l	scapula_upward_rot_l	scapula_winging_l	shoulder_elv_l	plane_of_elev_l	axial_rot_l	elbow_flexion_l	pro_sup_l	wrist_flex_l	wrist_dev_l
      9.68000000	    -29.54837449	    -35.85100672	     45.65282615	    -56.60618666	    792.63574093	    -36.34850991	     45.00000000	    -45.00000000	     38.99935616	    -45.00000000	    -45.00000000	  -1089.85562521	  -2259.61182603	    -90.00000000	     29.71435093	   1062.87473378	    125.61113432	     12.45578967	      9.54304949	     -3.15627101	     37.68167315	    -33.13798283	    -45.00000000	    -29.68276379	  -3499.37657729	  -2261.25554517	    142.47314266	    179.99999979	   1436.89151813	   -320.18915184	     14.49415665	    -20.65105206
      9.69000000	    -29.66433814	    -35.75759950	     45.39526051	    -58.64986013	    794.41681090	    -36.51993344	     45.00000000	    -45.00000000	     39.11392514	    -45.00000000	    -45.00000000	  -1089.90737206	  -2259.36677769	    -90.00000000	     29.48813141	   1062.75830724	    125.10985430	     12.46414746	      9.60489605	     -3.25455381	     37.72830879	    -33.18597374	    -45.00000000	    -29.71426849	  -3499.29627841	  -2261.17192692	    142.48511895	    179.99999979	   1436.88152617	   -320.18565579	     14.59861829	    -20.75045459
      9.70000000	    -29.94709011	    -35.53064983	     44.93492483	    -60.65026615	    796.19097466	    -36.69477412	     45.00000000	    -45.00000000	     39.09624190	    -45.00000000	    -45.00000000	  -1089.87743113	  -2259.19781939	    -90.00000000	     29.33774093	   1062.53773493	    124.57737777	     12.51504475	      9.66885568	     -3.19760451	     37.76986778	    -33.29983447	    -45.00000000	    -29.53298470	  -3499.23808654	  -2261.09741800	    142.52176393	    179.99999979	   1436.88380396	   -320.18020441	     14.64014207	    -20.80979919
      9.71000000	    -30.06229062	    -35.46037170	     44.69471404	    -62.60632537	    797.95853328	    -36.87275451	     45.00000000	    -45.00000000	     39.25325429	    -45.00000000	    -45.00000000	  -1089.93960136	  -2258.99453199	    -90.00000000	     29.15404483	   1062.40072257	    123.95592382	     12.59804596	      9.67891545	     -3.17810229	     37.82872425	    -33.29241560	    -45.00000000	    -29.49341400	  -3499.24847632	  -2260.97218653	    142.61300106	    179.99999979	   1436.85661992	   -320.16924581	     14.65666738	    -20.84015880
      9.72000000	    -30.18231398	    -35.23720043	     44.41997845	    -64.51608233	    799.72296071	    -37.05350502	     45.00000000	    -45.00000000	     39.30849202	    -45.00000000	    -45.00000000	  -1089.99209905	  -2258.74197991	    -90.00000000	     28.92168635	   1062.34352337	    123.25914413	     12.63787635	      9.71599003	     -3.20573904	     37.89769586	    -33.35848910	    -45.00000000	    -29.39814868	  -3499.21796069	  -2260.94003731	    142.67045300	    179.99999979	   1436.95105627	   -320.17433253	     14.71691205	    -20.96698290
      9.73000000	    -30.07342561	    -35.30520904	     44.57527713	    -66.37331210	    801.48561039	    -37.23634339	     45.00000000	    -45.00000000	     39.62358813	    -45.00000000	    -45.00000000	  -1090.19252993	  -2258.62044270	    -90.00000000	     28.82671886	   1062.28860900	    122.38224884	     12.20985930	     10.05512492	     -3.64821669	     37.78192238	    -33.42245686	    -45.00000000	    -30.00328738	  -3499.03709701	  -2260.71585820	    142.46334375	    179.99999979	   1436.92624599	   -320.18036232	     15.13118173	    -21.31472613
      9.74000000	    -30.46434362	    -34.99547389	     43.93785626	    -68.17627462	    803.25252452	    -37.42094986	     45.00000000	    -45.00000000	     39.47166449	    -45.00000000	    -45.00000000	  -1090.09359021	  -2258.43091130	    -90.00000000	     28.65909451	   1062.06999865	    121.64715618	     12.45909699	      9.96666360	     -3.23293911	     37.97635007	    -33.44066159	    -45.00000000	    -29.20722630	  -3499.17826368	  -2260.61811158	    142.78440495	    179.99999979	   1436.92697737	   -320.19302716	     14.93565525	    -21.19075616
      9.75000000	    -30.98435808	    -34.55764620	     43.07076385	    -69.91969754	    805.02350545	    -37.60644898	     45.00000000	    -45.00000000	     39.53485725	    -45.00000000	    -44.20783500	  -1090.16777151	  -2258.44846847	    -90.00000000	     28.69635377	   1061.96592670	    120.95269819	     12.64468648	      9.91213592	     -2.99744440	     38.03705013	    -33.60434273	    -45.00000000	    -28.86942605	  -3499.15325834	  -2260.64779851	    142.79053309	    179.99999979	   1436.97935729	   -320.20613712	     14.80053798	    -21.15169124
      9.76000000	    -30.58179812	    -34.70479411	     43.60418681	    -71.60547145	    806.80329042	    -37.79248464	     45.00000000	    -45.00000000	     39.83952926	    -45.00000000	    -45.00000000	  -1090.40753873	  -2258.06555942	    -90.00000000	     28.34109683	   1061.73399452	    119.93951019	     12.39066532	     10.27206955	     -3.61617351	     37.96297332	    -33.65690292	    -45.00000000	    -29.46641150	  -3499.00141165	  -2260.49740837	    142.75839717	    179.99999979	   1436.97656482	   -320.22519702	     15.30492764	    -21.63272220
      9.77000000	    -31.27893099	    -34.12458603	     42.45335151	    -73.23351523	    808.59120388	    -37.97815822	     45.00000000	    -45.00000000	     39.79003469	    -45.00000000	    -43.88590954	  -1090.40935455	  -2258.11771848	    -90.00000000	     28.41372911	   1061.67343538	    119.18602565	     12.56332354	     10.18949163	     -3.11540655	     38.13130900	    -33.90287049	    -45.00000000	    -28.66187809	  -3499.03919225	  -2260.54368723	    142.96483576	    179.99999979	   1437.02006846	   -320.26289760	     15.09226936	    -21.52730887
      9.78000000	    -31.72522199	    -33.73299357	     41.65744055	    -74.80761368	    810.38946279	    -38.16304331	     45.00000000	    -45.00000000	     39.82969911	    -45.00000000	    -43.23329045	  -1090.36858115	  -2258.04636735	    -90.00000000	     28.36169380	   1061.59882464	    118.43006582	     12.61772993	     10.22728030	     -3.05852199	     38.16056633	    -34.14584573	    -45.00000000	    -28.31585200	  -3498.83287339	  -2260.58724788	    142.91159134	    179.99999979	   1436.98131006	   -320.28519873	     15.10001974	    -21.56971848
      9.79000000	    -31.84375107	    -33.49090862	     41.30852293	    -76.33452661	    812.20177194	    -38.34700463	     45.00000000	    -45.00000000	     39.95067450	    -45.00000000	    -43.05422960	  -1090.44225538	  -2257.84416840	    -90.00000000	     28.17990276	   1061.46633770	    117.56478225	     12.66328926	     10.33121682	     -3.14658331	     38.18586059	    -34.17220079	    -45.00000000	    -28.20486788	  -3498.75813479	  -2260.55238419	    142.86071741	    179.99999979	   1437.04147381	   -320.33385483	     15.21458679	    -21.74273203
